<svg xmlns="http://www.w3.org/2000/svg" width="192" height="192" viewBox="0 0 192 192">
  <rect width="192" height="192" rx="38.4" fill="#007AFF"/>
  <!-- Heart icon -->
  <path d="M96 148c-2.5 0-4.8-1-6.5-2.7C72.8 129.5 52 110.5 52 85c0-15.5 12.5-28 28-28 9.5 0 16 4.5 16 4.5S103 57 112 57c15.5 0 28 12.5 28 28 0 25.5-20.8 44.5-37.5 60.3-1.7 1.7-4 2.7-6.5 2.7z" fill="white"/>
  <!-- Pulse line -->
  <path d="M60 95h18l8-20 10 40 10-40 8 20h18" stroke="white" stroke-width="4" fill="none" stroke-linecap="round" stroke-linejoin="round" opacity="0.9"/>
</svg>